<?xml version="1.0" encoding="UTF-8"?> <svg xmlns="http://www.w3.org/2000/svg" width="225" height="225" viewBox="0 0 225 225" fill="none"> <path fill-rule="evenodd" clip-rule="evenodd" d="M221 112.5C221 172.423 172.423 221 112.5 221C52.5771 221 4 172.423 4 112.5C4 52.5771 52.5771 4 112.5 4C172.423 4 221 52.5771 221 112.5ZM225 112.5C225 174.632 174.632 225 112.5 225C50.368 225 0 174.632 0 112.5C0 50.368 50.368 0 112.5 0C174.632 0 225 50.368 225 112.5ZM215 112.5C215 169.109 169.109 215 112.5 215C55.8908 215 10 169.109 10 112.5C10 55.8908 55.8908 10 112.5 10C169.109 10 215 55.8908 215 112.5ZM219 112.5C219 171.318 171.318 219 112.5 219C53.6817 219 6 171.318 6 112.5C6 53.6817 53.6817 6 112.5 6C171.318 6 219 53.6817 219 112.5ZM112.5 209C165.795 209 209 165.795 209 112.5C209 59.2045 165.795 16 112.5 16C59.2045 16 16 59.2045 16 112.5C16 165.795 59.2045 209 112.5 209ZM112.5 213C168.005 213 213 168.005 213 112.5C213 56.9954 168.005 12 112.5 12C56.9954 12 12 56.9954 12 112.5C12 168.005 56.9954 213 112.5 213ZM203 112.5C203 162.482 162.482 203 112.5 203C62.5182 203 22 162.482 22 112.5C22 62.5182 62.5182 22 112.5 22C162.482 22 203 62.5182 203 112.5ZM207 112.5C207 164.691 164.691 207 112.5 207C60.3091 207 18 164.691 18 112.5C18 60.3091 60.3091 18 112.5 18C164.691 18 207 60.3091 207 112.5ZM112.5 197C159.168 197 197 159.168 197 112.5C197 65.8319 159.168 28 112.5 28C65.8319 28 28 65.8319 28 112.5C28 159.168 65.8319 197 112.5 197ZM112.5 201C161.377 201 201 161.377 201 112.5C201 63.6228 161.377 24 112.5 24C63.6228 24 24 63.6228 24 112.5C24 161.377 63.6228 201 112.5 201ZM191 112.5C191 155.854 155.854 191 112.5 191C69.1456 191 34 155.854 34 112.5C34 69.1456 69.1456 34 112.5 34C155.854 34 191 69.1456 191 112.5ZM195 112.5C195 158.063 158.063 195 112.5 195C66.9365 195 30 158.063 30 112.5C30 66.9365 66.9365 30 112.5 30C158.063 30 195 66.9365 195 112.5ZM112.5 185C152.541 185 185 152.541 185 112.5C185 72.4594 152.541 40 112.5 40C72.4594 40 40 72.4594 40 112.5C40 152.541 72.4594 185 112.5 185ZM112.5 189C154.75 189 189 154.75 189 112.5C189 70.2502 154.75 36 112.5 36C70.2502 36 36 70.2502 36 112.5C36 154.75 70.2502 189 112.5 189ZM179 112.5C179 149.227 149.227 179 112.5 179C75.7731 179 46 149.227 46 112.5C46 75.7731 75.7731 46 112.5 46C149.227 46 179 75.7731 179 112.5ZM183 112.5C183 151.436 151.436 183 112.5 183C73.5639 183 42 151.436 42 112.5C42 73.5639 73.5639 42 112.5 42C151.436 42 183 73.5639 183 112.5ZM112.5 173C145.913 173 173 145.913 173 112.5C173 79.0868 145.913 52 112.5 52C79.0868 52 52 79.0868 52 112.5C52 145.913 79.0868 173 112.5 173ZM112.5 177C148.122 177 177 148.122 177 112.5C177 76.8776 148.122 48 112.5 48C76.8776 48 48 76.8776 48 112.5C48 148.122 76.8776 177 112.5 177ZM167 112.5C167 142.6 142.6 167 112.5 167C82.4005 167 58 142.6 58 112.5C58 82.4005 82.4005 58 112.5 58C142.6 58 167 82.4005 167 112.5ZM171 112.5C171 144.809 144.809 171 112.5 171C80.1913 171 54 144.809 54 112.5C54 80.1913 80.1913 54 112.5 54C144.809 54 171 80.1913 171 112.5ZM112.5 161C139.286 161 161 139.286 161 112.5C161 85.7142 139.286 64 112.5 64C85.7142 64 64 85.7142 64 112.5C64 139.286 85.7142 161 112.5 161ZM112.5 165C141.495 165 165 141.495 165 112.5C165 83.5051 141.495 60 112.5 60C83.5051 60 60 83.5051 60 112.5C60 141.495 83.5051 165 112.5 165ZM155 112.5C155 135.972 135.972 155 112.5 155C89.0279 155 70 135.972 70 112.5C70 89.0279 89.0279 70 112.5 70C135.972 70 155 89.0279 155 112.5ZM159 112.5C159 138.181 138.181 159 112.5 159C86.8188 159 66 138.181 66 112.5C66 86.8188 86.8188 66 112.5 66C138.181 66 159 86.8188 159 112.5ZM112.5 149C132.658 149 149 132.658 149 112.5C149 92.3416 132.658 76 112.5 76C92.3416 76 76 92.3416 76 112.5C76 132.658 92.3416 149 112.5 149ZM112.5 153C134.868 153 153 134.868 153 112.5C153 90.1325 134.868 72 112.5 72C90.1325 72 72 90.1325 72 112.5C72 134.868 90.1325 153 112.5 153ZM143 112.5C143 129.345 129.345 143 112.5 143C95.6553 143 82 129.345 82 112.5C82 95.6553 95.6553 82 112.5 82C129.345 82 143 95.6553 143 112.5ZM147 112.5C147 131.554 131.554 147 112.5 147C93.4462 147 78 131.554 78 112.5C78 93.4462 93.4462 78 112.5 78C131.554 78 147 93.4462 147 112.5ZM112.5 137C126.031 137 137 126.031 137 112.5C137 98.969 126.031 88 112.5 88C98.969 88 88 98.969 88 112.5C88 126.031 98.969 137 112.5 137ZM112.5 141C128.24 141 141 128.24 141 112.5C141 96.7599 128.24 84 112.5 84C96.7599 84 84 96.7599 84 112.5C84 128.24 96.7599 141 112.5 141ZM131 112.5C131 122.717 122.717 131 112.5 131C102.283 131 94 122.717 94 112.5C94 102.283 102.283 94 112.5 94C122.717 94 131 102.283 131 112.5ZM135 112.5C135 124.926 124.926 135 112.5 135C100.074 135 90 124.926 90 112.5C90 100.074 100.074 90 112.5 90C124.926 90 135 100.074 135 112.5ZM112.5 125C119.404 125 125 119.404 125 112.5C125 105.596 119.404 100 112.5 100C105.596 100 100 105.596 100 112.5C100 119.404 105.596 125 112.5 125ZM112.5 129C121.613 129 129 121.613 129 112.5C129 103.387 121.613 96 112.5 96C103.387 96 96 103.387 96 112.5C96 121.613 103.387 129 112.5 129ZM119 112.5C119 116.09 116.09 119 112.5 119C108.91 119 106 116.09 106 112.5C106 108.91 108.91 106 112.5 106C116.09 106 119 108.91 119 112.5ZM123 112.5C123 118.299 118.299 123 112.5 123C106.701 123 102 118.299 102 112.5C102 106.701 106.701 102 112.5 102C118.299 102 123 106.701 123 112.5Z" fill="url(#paint0_diamond)"></path> <defs> <radialGradient id="paint0_diamond" cx="0" cy="0" r="1" gradientUnits="userSpaceOnUse" gradientTransform="translate(112.5 112.5) rotate(45) scale(159.099)"> <stop stop-color="#222222"></stop> <stop offset="1" stop-color="#CCCCCC"></stop> </radialGradient> </defs> </svg> 