<?xml version="1.0" encoding="UTF-8"?> <svg xmlns="http://www.w3.org/2000/svg" width="225" height="195" viewBox="0 0 225 195" fill="none"> <path fill-rule="evenodd" clip-rule="evenodd" d="M106.579 133.421L112.5 123.158L118.421 133.421H106.579ZM108.553 132.281L112.5 125.439L116.447 132.281H108.553Z" fill="url(#paint0_diamond)"></path> <path fill-rule="evenodd" clip-rule="evenodd" d="M112.5 116.316L100.658 136.842H124.342L112.5 116.316ZM112.5 118.596L102.631 135.702H122.369L112.5 118.596Z" fill="url(#paint1_diamond)"></path> <path fill-rule="evenodd" clip-rule="evenodd" d="M94.7372 140.263L112.5 109.474L130.263 140.263H94.7372ZM96.7107 139.123L112.5 111.754L128.29 139.123H96.7107Z" fill="url(#paint2_diamond)"></path> <path fill-rule="evenodd" clip-rule="evenodd" d="M112.5 102.632L88.816 143.684H136.185L112.5 102.632ZM112.5 104.912L90.7895 142.544H134.211L112.5 104.912Z" fill="url(#paint3_diamond)"></path> <path fill-rule="evenodd" clip-rule="evenodd" d="M82.8948 147.105L112.5 95.7895L142.105 147.105H82.8948ZM84.8683 145.965L112.5 98.0702L140.132 145.965H84.8683Z" fill="url(#paint4_diamond)"></path> <path fill-rule="evenodd" clip-rule="evenodd" d="M112.5 88.9474L76.9735 150.526H148.026L112.5 88.9474ZM112.5 91.2281L78.9471 149.386H146.052L112.5 91.2281Z" fill="url(#paint5_diamond)"></path> <path fill-rule="evenodd" clip-rule="evenodd" d="M71.0529 153.947L112.5 82.1053L153.948 153.947H71.0529ZM73.0264 152.807L112.5 84.386L151.974 152.807H73.0264Z" fill="url(#paint6_diamond)"></path> <path fill-rule="evenodd" clip-rule="evenodd" d="M112.5 75.2632L65.1317 157.368H159.869L112.5 75.2632ZM112.5 77.5439L67.1052 156.228H157.895L112.5 77.5439Z" fill="url(#paint7_diamond)"></path> <path fill-rule="evenodd" clip-rule="evenodd" d="M59.2105 160.789L112.5 68.4211L165.79 160.789H59.2105ZM61.184 159.649L112.5 70.7018L163.816 159.649H61.184Z" fill="url(#paint8_diamond)"></path> <path fill-rule="evenodd" clip-rule="evenodd" d="M112.5 61.5789L53.2893 164.211H171.71L112.5 61.5789ZM112.5 63.8596L55.2628 163.07H169.737L112.5 63.8596Z" fill="url(#paint9_diamond)"></path> <path fill-rule="evenodd" clip-rule="evenodd" d="M47.3686 167.632L112.5 54.7368L177.632 167.632H47.3686ZM49.3421 166.491L112.5 57.0175L175.658 166.491H49.3421Z" fill="url(#paint10_diamond)"></path> <path fill-rule="evenodd" clip-rule="evenodd" d="M112.5 47.8947L41.4474 171.053H183.553L112.5 47.8947ZM112.5 50.1754L43.4209 169.912H181.579L112.5 50.1754Z" fill="url(#paint11_diamond)"></path> <path fill-rule="evenodd" clip-rule="evenodd" d="M35.5262 174.474L112.5 41.0526L189.474 174.474H35.5262ZM37.4997 173.333L112.5 43.3333L187.5 173.333H37.4997Z" fill="url(#paint12_diamond)"></path> <path fill-rule="evenodd" clip-rule="evenodd" d="M112.5 34.2105L29.6055 177.895H195.395L112.5 34.2105ZM112.5 36.4912L31.5791 176.754H193.421L112.5 36.4912Z" fill="url(#paint13_diamond)"></path> <path fill-rule="evenodd" clip-rule="evenodd" d="M23.6843 181.316L112.5 27.3684L201.316 181.316H23.6843ZM25.6579 180.175L112.5 29.6491L199.342 180.175H25.6579Z" fill="url(#paint14_diamond)"></path> <path fill-rule="evenodd" clip-rule="evenodd" d="M112.5 20.5263L17.7631 184.737H207.237L112.5 20.5263ZM112.5 22.807L19.7366 183.596H205.263L112.5 22.807Z" fill="url(#paint15_diamond)"></path> <path fill-rule="evenodd" clip-rule="evenodd" d="M11.8419 188.158L112.5 13.6842L213.158 188.158H11.8419ZM13.8154 187.018L112.5 15.9649L211.184 187.018H13.8154Z" fill="url(#paint16_diamond)"></path> <path fill-rule="evenodd" clip-rule="evenodd" d="M112.5 6.8421L5.92121 191.579H219.079L112.5 6.8421ZM112.5 9.12281L7.89477 190.439H217.106L112.5 9.12281Z" fill="url(#paint17_diamond)"></path> <path fill-rule="evenodd" clip-rule="evenodd" d="M112.5 0L0 195H225L112.5 0ZM112.5 2.2807L1.97355 193.86H223.026L112.5 2.2807Z" fill="url(#paint18_diamond)"></path> <defs> <radialGradient id="paint0_diamond" cx="0" cy="0" r="1" gradientUnits="userSpaceOnUse" gradientTransform="translate(112.5 97.5) rotate(40.9144) scale(148.871 147.359)"> <stop stop-color="#222222"></stop> <stop offset="1" stop-color="#CCCCCC"></stop> </radialGradient> <radialGradient id="paint1_diamond" cx="0" cy="0" r="1" gradientUnits="userSpaceOnUse" gradientTransform="translate(112.5 97.5) rotate(40.9144) scale(148.871 147.359)"> <stop stop-color="#222222"></stop> <stop offset="1" stop-color="#CCCCCC"></stop> </radialGradient> <radialGradient id="paint2_diamond" cx="0" cy="0" r="1" gradientUnits="userSpaceOnUse" gradientTransform="translate(112.5 97.5) rotate(40.9144) scale(148.871 147.359)"> <stop stop-color="#222222"></stop> <stop offset="1" stop-color="#CCCCCC"></stop> </radialGradient> <radialGradient id="paint3_diamond" cx="0" cy="0" r="1" gradientUnits="userSpaceOnUse" gradientTransform="translate(112.5 97.5) rotate(40.9144) scale(148.871 147.359)"> <stop stop-color="#222222"></stop> <stop offset="1" stop-color="#CCCCCC"></stop> </radialGradient> <radialGradient id="paint4_diamond" cx="0" cy="0" r="1" gradientUnits="userSpaceOnUse" gradientTransform="translate(112.5 97.5) rotate(40.9144) scale(148.871 147.359)"> <stop stop-color="#222222"></stop> <stop offset="1" stop-color="#CCCCCC"></stop> </radialGradient> <radialGradient id="paint5_diamond" cx="0" cy="0" r="1" gradientUnits="userSpaceOnUse" gradientTransform="translate(112.5 97.5) rotate(40.9144) scale(148.871 147.359)"> <stop stop-color="#222222"></stop> <stop offset="1" stop-color="#CCCCCC"></stop> </radialGradient> <radialGradient id="paint6_diamond" cx="0" cy="0" r="1" gradientUnits="userSpaceOnUse" gradientTransform="translate(112.5 97.5) rotate(40.9144) scale(148.871 147.359)"> <stop stop-color="#222222"></stop> <stop offset="1" stop-color="#CCCCCC"></stop> </radialGradient> <radialGradient id="paint7_diamond" cx="0" cy="0" r="1" gradientUnits="userSpaceOnUse" gradientTransform="translate(112.5 97.5) rotate(40.9144) scale(148.871 147.359)"> <stop stop-color="#222222"></stop> <stop offset="1" stop-color="#CCCCCC"></stop> </radialGradient> <radialGradient id="paint8_diamond" cx="0" cy="0" r="1" gradientUnits="userSpaceOnUse" gradientTransform="translate(112.5 97.5) rotate(40.9144) scale(148.871 147.359)"> <stop stop-color="#222222"></stop> <stop offset="1" stop-color="#CCCCCC"></stop> </radialGradient> <radialGradient id="paint9_diamond" cx="0" cy="0" r="1" gradientUnits="userSpaceOnUse" gradientTransform="translate(112.5 97.5) rotate(40.9144) scale(148.871 147.359)"> <stop stop-color="#222222"></stop> <stop offset="1" stop-color="#CCCCCC"></stop> </radialGradient> <radialGradient id="paint10_diamond" cx="0" cy="0" r="1" gradientUnits="userSpaceOnUse" gradientTransform="translate(112.5 97.5) rotate(40.9144) scale(148.871 147.359)"> <stop stop-color="#222222"></stop> <stop offset="1" stop-color="#CCCCCC"></stop> </radialGradient> <radialGradient id="paint11_diamond" cx="0" cy="0" r="1" gradientUnits="userSpaceOnUse" gradientTransform="translate(112.5 97.5) rotate(40.9144) scale(148.871 147.359)"> <stop stop-color="#222222"></stop> <stop offset="1" stop-color="#CCCCCC"></stop> </radialGradient> <radialGradient id="paint12_diamond" cx="0" cy="0" r="1" gradientUnits="userSpaceOnUse" gradientTransform="translate(112.5 97.5) rotate(40.9144) scale(148.871 147.359)"> <stop stop-color="#222222"></stop> <stop offset="1" stop-color="#CCCCCC"></stop> </radialGradient> <radialGradient id="paint13_diamond" cx="0" cy="0" r="1" gradientUnits="userSpaceOnUse" gradientTransform="translate(112.5 97.5) rotate(40.9144) scale(148.871 147.359)"> <stop stop-color="#222222"></stop> <stop offset="1" stop-color="#CCCCCC"></stop> </radialGradient> <radialGradient id="paint14_diamond" cx="0" cy="0" r="1" gradientUnits="userSpaceOnUse" gradientTransform="translate(112.5 97.5) rotate(40.9144) scale(148.871 147.359)"> <stop stop-color="#222222"></stop> <stop offset="1" stop-color="#CCCCCC"></stop> </radialGradient> <radialGradient id="paint15_diamond" cx="0" cy="0" r="1" gradientUnits="userSpaceOnUse" gradientTransform="translate(112.5 97.5) rotate(40.9144) scale(148.871 147.359)"> <stop stop-color="#222222"></stop> <stop offset="1" stop-color="#CCCCCC"></stop> </radialGradient> <radialGradient id="paint16_diamond" cx="0" cy="0" r="1" gradientUnits="userSpaceOnUse" gradientTransform="translate(112.5 97.5) rotate(40.9144) scale(148.871 147.359)"> <stop stop-color="#222222"></stop> <stop offset="1" stop-color="#CCCCCC"></stop> </radialGradient> <radialGradient id="paint17_diamond" cx="0" cy="0" r="1" gradientUnits="userSpaceOnUse" gradientTransform="translate(112.5 97.5) rotate(40.9144) scale(148.871 147.359)"> <stop stop-color="#222222"></stop> <stop offset="1" stop-color="#CCCCCC"></stop> </radialGradient> <radialGradient id="paint18_diamond" cx="0" cy="0" r="1" gradientUnits="userSpaceOnUse" gradientTransform="translate(112.5 97.5) rotate(40.9144) scale(148.871 147.359)"> <stop stop-color="#222222"></stop> <stop offset="1" stop-color="#CCCCCC"></stop> </radialGradient> </defs> </svg> 